<?xml version="1.0" encoding="UTF-8" standalone="no"?>
<svg
   xmlns:dc="http://purl.org/dc/elements/1.1/"
   xmlns:cc="http://creativecommons.org/ns#"
   xmlns:rdf="http://www.w3.org/1999/02/22-rdf-syntax-ns#"
   xmlns:svg="http://www.w3.org/2000/svg"
   xmlns="http://www.w3.org/2000/svg"
   xmlns:sodipodi="http://sodipodi.sourceforge.net/DTD/sodipodi-0.dtd"
   xmlns:inkscape="http://www.inkscape.org/namespaces/inkscape"
   width="300"
   height="300"
   id="Mangekyo Sharingan"
   version="1.1"
   inkscape:version="1.0.2 (e86c870879, 2021-01-15)"
   sodipodi:docname="Símbolo_MS_Rai.svg">
  <title
     id="title988">Mangekyou Sharingan Storm Conections</title>
  <metadata
     id="metadata3004">
    <rdf:RDF>
      <cc:Work
         rdf:about="">
        <dc:title>Mangekyou Sharingan Storm Conections</dc:title>
        <dc:format>image/svg+xml</dc:format>
        <dc:type
           rdf:resource="http://purl.org/dc/dcmitype/StillImage" />
        <dc:creator>
          <cc:Agent>
            <dc:title>Lukas Pessoa Dantas</dc:title>
          </cc:Agent>
        </dc:creator>
        <dc:source>Naruto Shippuuden: Ultimate Ninja Storm Conections</dc:source>
        <dc:date>03/07/2023</dc:date>
      </cc:Work>
    </rdf:RDF>
  </metadata>
  <defs
     id="gr">
    <radialGradient
       id="fondo">
      <stop
         offset="0"
         id="fondo 3"
         style="stop-color:#660000;stop-opacity:1" />
      <stop
         id="fondo 2"
         offset="0.5"
         style="stop-color:#c30000;stop-opacity:1" />
      <stop
         offset="1"
         id="fondo 1"
         style="stop-color:#a00000;stop-opacity:1" />
    </radialGradient>
    <radialGradient
       id="fondo-4"
       cx="150"
       cy="150"
       fx="150"
       fy="150"
       r="150"
       gradientUnits="userSpaceOnUse"
       gradientTransform="translate(237.42718,28.916024)">
      <stop
         offset="0"
         id="fondo 3-2"
         style="stop-color:#660000;stop-opacity:1" />
      <stop
         id="fondo 2-0"
         offset="0.5"
         style="stop-color:#c30000;stop-opacity:1" />
      <stop
         offset="1"
         id="fondo 1-7"
         style="stop-color:#a00000;stop-opacity:1" />
    </radialGradient>
  </defs>
  <sodipodi:namedview
     id="base"
     pagecolor="#ffffff"
     bordercolor="#666666"
     borderopacity="1.0"
     inkscape:pageopacity="0.0"
     inkscape:pageshadow="2"
     inkscape:zoom="1.486731"
     inkscape:cx="168.57248"
     inkscape:cy="134.94101"
     inkscape:document-units="px"
     inkscape:current-layer="Mangekyo Sharingan"
     showgrid="false"
     inkscape:window-width="1360"
     inkscape:window-height="705"
     inkscape:window-x="-8"
     inkscape:window-y="-8"
     inkscape:window-maximized="1"
     inkscape:document-rotation="0" />
  <circle
     id="iris"
     cx="150"
     cy="150"
     r="145"
     sodipodi:cx="150"
     sodipodi:cy="150"
     sodipodi:rx="145"
     sodipodi:ry="145"
     style="fill:url(#fondo);fill-opacity:1;fill-rule:nonzero;stroke:#000000;stroke-width:10px" />
  <circle
     id="centro"
     cx="150"
     cy="150"
     r="22.354158"
     style="fill:#000000;stroke:none;stroke-width:1.11771" />
  <path
     style="fill:#000000;stroke-width:0.124225"
     d="m 112.58341,257.00855 c -1.04719,-0.0574 -2.4844,-0.16581 -3.1938,-0.24057 -0.70939,-0.0748 -2.09132,-0.19363 -3.07096,-0.26411 -0.97964,-0.0705 -2.25103,-0.20998 -2.8253,-0.30998 -0.57426,-0.10001 -1.59614,-0.23821 -2.27084,-0.30713 -1.15464,-0.11793 -3.04216,-0.41819 -5.283715,-0.84055 -0.540492,-0.1018 -1.480213,-0.27086 -2.08826,-0.37561 -0.608056,-0.10474 -1.516716,-0.30016 -2.019263,-0.43422 -0.502538,-0.13407 -1.045128,-0.24375 -1.205742,-0.24375 -0.160614,0 -0.827355,-0.13578 -1.481635,-0.30169 -0.654287,-0.16594 -1.85294,-0.45313 -2.663676,-0.63822 -0.810736,-0.18509 -1.888642,-0.44603 -2.395354,-0.57989 -0.506703,-0.13386 -1.170032,-0.29257 -1.474056,-0.3527 -0.580163,-0.11472 -2.049232,-0.49136 -3.500903,-0.89758 -1.135087,-0.31763 -2.642569,-0.71102 -3.591873,-0.93731 -0.421623,-0.10043 -0.946759,-0.25966 -1.166966,-0.35366 -0.220211,-0.0939 -0.62149,-0.21075 -0.891735,-0.25945 -0.270245,-0.0486 -0.823019,-0.19721 -1.228386,-0.32999 -0.405368,-0.1328 -1.317445,-0.41447 -2.026837,-0.62592 -0.709392,-0.21146 -1.621469,-0.4899 -2.026837,-0.61877 -0.405366,-0.12885 -1.317443,-0.41366 -2.026835,-0.63289 -0.709392,-0.21922 -1.566191,-0.50419 -1.903998,-0.63323 -0.337807,-0.12906 -0.807664,-0.29227 -1.044129,-0.36271 -0.236464,-0.0705 -0.982708,-0.33053 -1.65832,-0.578 -0.675612,-0.24747 -1.478382,-0.52416 -1.783931,-0.61488 -0.305549,-0.0907 -0.664852,-0.22908 -0.798451,-0.30746 -0.133598,-0.0785 -0.54693,-0.24996 -0.918517,-0.38127 -0.371587,-0.13131 -1.062554,-0.39153 -1.535482,-0.57824 -0.472928,-0.18673 -1.157953,-0.44742 -1.522274,-0.57934 -0.36432,-0.1319 -0.723622,-0.28922 -0.798451,-0.3496 -0.07482,-0.0604 -0.357156,-0.182 -0.627402,-0.27026 -0.270244,-0.0882 -0.684005,-0.26524 -0.919468,-0.39327 -0.235468,-0.12803 -0.473877,-0.23276 -0.529804,-0.23276 -0.09067,0 -0.669132,-0.26006 -2.235884,-1.00514 -2.680495,-1.27473 -7.474068,-3.78936 -8.478987,-4.44792 -0.94054,-0.61637 -1.286991,-0.82838 -1.353661,-0.82838 -0.03974,0 -0.253428,-0.14134 -0.474875,-0.31407 -0.221444,-0.17275 -0.435858,-0.31407 -0.476483,-0.31407 -0.103565,0 -2.809752,-1.9247 -3.772365,-2.68299 -3.867449,-3.04654 -7.163052,-6.72119 -8.748111,-9.75426 -0.162489,-0.31093 -0.356254,-0.6784 -0.430594,-0.81658 -0.478783,-0.89004 -1.259334,-2.89073 -1.445873,-3.70604 -0.08695,-0.38003 -0.258805,-1.05843 -0.381908,-1.50755 -0.187379,-0.68362 -0.222764,-1.27687 -0.217306,-3.64324 0.0035,-1.55464 0.06503,-3.08103 0.136571,-3.39196 0.799359,-3.47477 1.334138,-4.96255 2.980358,-8.2915 0.923624,-1.86774 1.660759,-3.27348 2.3807,-4.54009 0.142915,-0.25143 0.525059,-0.92983 0.849203,-1.50753 0.324147,-0.57772 0.750547,-1.3048 0.947561,-1.61572 0.19701,-0.31093 0.451386,-0.73494 0.565272,-0.94223 0.43128,-0.78497 3.212775,-5.10077 4.453144,-6.90957 0.473823,-0.69095 1.07214,-1.56599 1.329595,-1.9445 0.74734,-1.09877 4.066716,-5.62252 4.946313,-6.74096 0.442111,-0.5622 1.064519,-1.35868 1.38312,-1.77 0.972825,-1.2559 4.132097,-5.07601 4.868479,-5.88684 0.381795,-0.4204 1.468052,-1.64922 2.413908,-2.73074 2.108222,-2.41056 7.982412,-8.39544 10.324046,-10.51853 0.948943,-0.86039 1.999213,-1.81399 2.333934,-2.11911 0.693005,-0.63175 4.538444,-3.8959 5.278181,-4.48032 2.572331,-2.03227 3.759478,-2.94451 4.727557,-3.63279 0.236465,-0.16811 0.789238,-0.56503 1.228385,-0.88202 0.799715,-0.57727 4.719291,-3.24549 5.527739,-3.76298 1.145429,-0.73318 1.426558,-0.9075 1.596895,-0.99019 0.101346,-0.0492 0.488285,-0.28145 0.859875,-0.51613 0.67626,-0.42712 4.468718,-2.64304 5.441159,-3.17926 0.28408,-0.15665 1.069283,-0.59206 1.744895,-0.96759 0.675614,-0.37553 2.748517,-1.45382 4.606446,-2.39622 1.857931,-0.94239 3.474791,-1.76483 3.593021,-1.82764 0.11824,-0.0629 0.31171,-0.16571 0.42994,-0.22866 0.11824,-0.063 0.54664,-0.26585 0.952,-0.45091 0.40537,-0.18504 0.95814,-0.43973 1.22838,-0.56594 0.27026,-0.12622 0.96123,-0.43687 1.53549,-0.69031 1.01325,-0.44719 1.23165,-0.54636 2.73588,-1.2423 0.38997,-0.18044 0.77774,-0.32806 0.86169,-0.32806 0.0839,0 0.34529,-0.10474 0.58075,-0.23278 0.23547,-0.12802 0.64923,-0.30499 0.91948,-0.39325 0.27024,-0.0882 0.55258,-0.20989 0.6274,-0.27028 0.0748,-0.0604 0.43414,-0.21813 0.79844,-0.35056 0.70759,-0.25718 2.31916,-0.8597 3.42628,-1.28094 0.37158,-0.14139 0.92437,-0.34076 1.22838,-0.44306 0.30404,-0.10221 0.82917,-0.28873 1.16698,-0.41435 0.90286,-0.33573 2.10274,-0.73754 3.00954,-1.00783 0.43915,-0.1309 1.29594,-0.38919 1.904,-0.57396 0.60804,-0.18478 1.40957,-0.41529 1.78116,-0.51227 0.37159,-0.097 0.97963,-0.26937 1.35122,-0.38311 0.37159,-0.11373 1.11784,-0.30379 1.65833,-0.42235 0.54048,-0.11854 1.342,-0.30268 1.78116,-0.40917 1.57448,-0.3818 3.14305,-0.71097 3.74656,-0.78629 0.33781,-0.0423 1.24041,-0.18875 2.00578,-0.32578 1.45318,-0.26017 1.92506,-0.26753 1.92506,-0.03 0,0.0778 -0.85814,0.73014 -1.90697,1.44968 -1.04885,0.71954 -2.28078,1.58868 -2.73768,1.93143 -1.70422,1.27856 -3.60488,2.75379 -4.19973,3.2597 -0.3378,0.2873 -1.00113,0.82612 -1.47406,1.19737 -2.42524,1.90383 -7.06614,6.17382 -10.44303,9.6084 -3.50589,3.56578 -7.6771,8.32423 -10.23203,11.67256 -0.89993,1.17936 -3.4368,4.63842 -3.73953,5.09887 -0.11358,0.17275 -0.36285,0.5402 -0.55398,0.81659 -0.48183,0.69682 -2.34249,3.54201 -2.69062,4.11433 -0.15763,0.25911 -0.424778,0.69723 -0.593674,0.97363 -1.297996,2.12395 -1.135223,1.84485 -2.45451,4.20856 -0.55494,0.99423 -1.706182,3.19434 -2.530913,4.8367 -0.05202,0.1037 -0.406742,0.86683 -0.788222,1.69598 -0.381482,0.82916 -0.7983,1.73368 -0.926271,2.01008 -0.12797,0.27638 -0.401982,0.92651 -0.608917,1.44473 -0.206942,0.51822 -0.455375,1.11181 -0.552075,1.3191 -0.362204,0.77639 -1.909976,4.95594 -2.163319,5.84173 -0.06913,0.24183 -0.228375,0.72237 -0.353782,1.06784 -0.125417,0.34548 -0.371333,1.12257 -0.546474,1.72685 -0.17515,0.60429 -0.45511,1.56535 -0.622141,2.13567 -0.385647,1.31687 -0.635595,2.28324 -0.918072,3.54956 -0.123298,0.55277 -0.308455,1.3725 -0.411448,1.82162 -0.449765,1.96135 -1.082745,5.51972 -1.318494,7.41209 -0.437907,3.51505 -0.608792,5.14921 -0.676579,6.46989 l -0.07738,1.50754 0.547271,0.75881 c 3.681363,5.10434 11.839902,12.41934 18.79279,16.84975 0.25336,0.16142 0.69558,0.44465 0.98271,0.62937 0.28714,0.18469 0.72935,0.46736 0.98271,0.62814 0.25336,0.16076 0.66794,0.42742 0.92129,0.59259 0.48006,0.31292 3.54949,2.0501 4.08438,2.31159 0.16891,0.0825 0.39001,0.20348 0.49136,0.26869 0.10138,0.0652 0.35009,0.19657 0.55278,0.29187 0.20267,0.0953 0.47906,0.23881 0.61419,0.31888 0.13512,0.08 0.43914,0.23067 0.67561,0.33465 0.23647,0.10401 0.51286,0.2419 0.61418,0.30643 0.20941,0.13335 1.10946,0.55047 2.45679,1.1386 0.50671,0.22118 1.1424,0.50846 1.41264,0.63839 0.27025,0.12993 0.71246,0.31886 0.9827,0.4198 0.27026,0.10095 0.8783,0.33591 1.35123,0.52213 0.47292,0.18619 1.1639,0.44808 1.53547,0.58191 0.37159,0.13385 0.8498,0.32517 1.06269,0.42518 0.21291,0.10001 0.46166,0.18431 0.55278,0.18734 0.0911,0.003 0.38681,0.0924 0.65705,0.19874 0.6259,0.24611 2.25698,0.76845 3.13238,1.00308 0.3716,0.0996 1.03492,0.29272 1.47407,0.42915 1.0341,0.32124 2.66081,0.7318 3.74657,0.94558 0.47293,0.0931 1.05335,0.22974 1.28982,0.30363 0.23646,0.0739 0.95715,0.21629 1.60154,0.31642 0.64437,0.10011 1.55646,0.26316 2.02683,0.36224 0.47037,0.0991 1.26981,0.21894 1.77652,0.26637 0.50671,0.0474 1.63989,0.19066 2.51818,0.3183 4.27487,0.62125 15.41293,0.58691 19.40761,-0.0597 0.60853,-0.0984 1.52103,-0.21419 2.02773,-0.25703 0.50671,-0.0428 1.44643,-0.18451 2.08825,-0.31484 0.64185,-0.13032 1.49864,-0.27284 1.90401,-0.31671 0.40536,-0.0439 1.12397,-0.18306 1.5969,-0.30928 0.47292,-0.1262 1.26876,-0.29311 1.76851,-0.37093 0.49976,-0.0778 0.95224,-0.16904 1.00552,-0.20272 0.0532,-0.0336 0.69467,-0.20085 1.42528,-0.37153 1.67804,-0.39198 4.4532,-1.17537 6.67189,-1.88345 2.24556,-0.71664 2.5522,-0.81945 3.56233,-1.19443 0.57427,-0.2132 1.40343,-0.52034 1.84258,-0.68256 0.43914,-0.1622 1.18539,-0.44711 1.65832,-0.63313 0.47293,-0.18603 1.1509,-0.44377 1.50658,-0.57277 0.35572,-0.129 0.76877,-0.32195 0.91792,-0.4288 0.14916,-0.10687 0.35563,-0.19477 0.45883,-0.1954 0.10327,-8.9e-4 0.46402,-0.1402 0.80183,-0.31015 0.3378,-0.16993 0.65914,-0.31076 0.71405,-0.31291 0.0549,-0.002 0.46952,-0.18129 0.9213,-0.39806 0.45178,-0.21676 1.12545,-0.53347 1.49702,-0.70379 1.54915,-0.7101 2.01105,-0.93563 4.23794,-2.0693 2.92372,-1.48841 4.03633,-2.08966 6.53927,-3.53389 1.09684,-0.63287 2.15436,-1.23916 2.35004,-1.34729 0.19566,-0.1082 0.98515,-0.59842 1.75438,-1.08951 0.76924,-0.4911 1.55565,-0.93321 1.74758,-0.98248 0.33594,-0.0862 0.3433,-0.0783 0.19731,0.21011 -0.3709,0.73296 -6.70113,6.45122 -10.13642,9.1565 -3.08618,2.43034 -4.354,3.35764 -7.79563,5.70177 -2.18957,1.49137 -4.63492,3.09224 -4.72339,3.09224 -0.0234,0 -0.39369,0.22531 -0.82272,0.50068 -0.42905,0.2754 -0.97355,0.60648 -1.21003,0.73577 -0.23646,0.12929 -1.03798,0.58697 -1.78115,1.01708 -0.74318,0.43011 -1.51706,0.86312 -1.71973,0.96224 -0.2027,0.0992 -0.9213,0.48354 -1.59691,0.85429 -1.66706,0.91482 -4.24293,2.21046 -5.98943,3.01268 -0.38909,0.17869 -0.99713,0.46105 -1.35123,0.62745 -0.35411,0.16639 -0.97551,0.44662 -1.38088,0.62269 -0.40536,0.17609 -1.13324,0.4932 -1.61748,0.70471 -0.48427,0.2115 -0.95689,0.38455 -1.05028,0.38455 -0.0934,0 -0.22735,0.0589 -0.2977,0.13079 -0.12321,0.12601 -1.22755,0.57012 -2.37802,0.95632 -0.30402,0.10201 -0.71861,0.26632 -0.92129,0.36502 -0.39788,0.19377 -1.40395,0.56106 -2.57961,0.94175 -1.53015,0.49548 -2.35187,0.78116 -2.90948,1.01155 -0.31654,0.13079 -0.64821,0.23684 -0.73702,0.23565 -0.0888,-8.9e-4 -0.61681,0.14236 -1.17332,0.31899 -2.17338,0.6898 -4.7106,1.41011 -5.74429,1.6308 -0.40537,0.0864 -1.09634,0.24792 -1.53548,0.35863 -1.70198,0.42904 -2.56089,0.6249 -3.68517,0.84027 -0.64183,0.12295 -1.60919,0.31128 -2.14967,0.41853 -3.64725,0.72365 -6.95808,1.16257 -12.95946,1.71807 -3.24054,0.29992 -11.85635,0.43761 -15.35483,0.24536 z"
     id="path44" />
  <path
     style="fill:#000000;stroke-width:0.124225"
     d="m 76.036172,64.092008 c 0.573305,-0.878194 1.385796,-2.068649 1.80524,-2.645627 0.419474,-0.57695 1.213349,-1.714322 1.764206,-2.527475 0.550875,-0.813143 1.307363,-1.844459 1.681101,-2.291791 0.373741,-0.447319 1.004365,-1.263193 1.401402,-1.81304 0.67945,-0.940983 1.883243,-2.425493 3.369795,-4.155557 0.358407,-0.41718 0.974678,-1.146472 1.369418,-1.620681 0.394735,-0.474222 1.018304,-1.163435 1.385677,-1.531623 0.367377,-0.368176 0.733658,-0.783233 0.813965,-0.922328 0.08031,-0.139096 0.531266,-0.648621 1.002088,-1.132289 0.470852,-0.483659 1.318892,-1.378128 1.884553,-1.987701 0.565661,-0.609573 1.330594,-1.412597 1.699877,-1.784492 0.369277,-0.371888 0.838389,-0.866993 1.042475,-1.10022 0.389432,-0.445076 1.450146,-1.529007 2.527778,-2.583081 0.842619,-0.824199 1.937046,-1.933022 2.607673,-2.641999 0.29778,-0.314921 0.69825,-0.690087 0.88976,-0.833792 0.19142,-0.143758 0.49326,-0.432851 0.67056,-0.64254 0.17721,-0.209739 0.5823,-0.61415 0.89997,-0.898818 0.31769,-0.284659 1.01766,-0.933706 1.55548,-1.442333 0.53783,-0.508621 1.235,-1.159283 1.54929,-1.445907 0.31427,-0.286632 1.01696,-0.934109 1.56152,-1.438846 0.54454,-0.504741 1.21973,-1.104266 1.50039,-1.332295 0.28067,-0.22802 0.65694,-0.553323 0.83618,-0.722888 0.17929,-0.169533 0.7776,-0.685785 1.32972,-1.147147 0.55212,-0.461362 1.19313,-1.018236 1.42447,-1.237489 0.23132,-0.219264 0.53081,-0.461239 0.66549,-0.537749 0.13478,-0.07645 0.48994,-0.348675 0.78945,-0.604824 0.29951,-0.256149 0.87035,-0.724434 1.26851,-1.040647 0.39818,-0.316202 0.96646,-0.779106 1.26286,-1.028658 0.29639,-0.24956 0.61229,-0.482065 0.70199,-0.516678 0.0897,-0.0346 0.3362,-0.218307 0.54775,-0.408217 0.21151,-0.189938 0.57171,-0.459745 0.80032,-0.599647 0.22861,-0.139906 0.43851,-0.29401 0.46648,-0.342444 0.0453,-0.07852 0.55978,-0.449455 1.98842,-1.433762 2.44419,-1.684012 7.01871,-4.578053 8.0915,-5.119058 1.00406,-0.506347 1.3609,-0.700377 1.39423,-0.758115 0.0199,-0.03442 0.24912,-0.148805 0.50943,-0.254219 0.26033,-0.105401 0.48992,-0.220429 0.51023,-0.255611 0.0518,-0.08969 3.07172,-1.470967 4.20972,-1.9254693 4.57211,-1.8260391 9.40225,-2.84279 12.8215,-2.6989564 0.35051,0.014745 0.76564,0.030675 0.92247,0.035385 1.01019,0.030382 3.13312,0.3547497 3.93246,0.6008572 0.37259,0.1147141 1.04603,0.3050833 1.49653,0.423033 0.68573,0.179535 1.21719,0.4455157 3.2638,1.6334275 1.3446,0.7803513 2.63573,1.5968323 2.86923,1.8142543 2.60956,2.42965 3.63063,3.636672 5.69047,6.726815 1.1557,1.733752 2.00454,3.075 2.74149,4.331792 0.14629,0.249483 0.54272,0.919629 0.88096,1.489196 0.33824,0.56958 0.75471,1.302393 0.92547,1.628472 0.17077,0.326081 0.41078,0.758382 0.53336,0.960655 0.46416,0.765985 2.81101,5.33273 3.75729,7.311321 0.36147,0.755818 0.82012,1.711496 1.01919,2.123713 0.57789,1.196601 2.83589,6.333139 3.36469,7.654113 0.26582,0.663979 0.64439,1.60124 0.8413,2.082817 0.60123,1.470441 2.32991,6.116506 2.66391,7.159646 0.17318,0.540845 0.69424,2.095981 1.15794,3.455876 1.0335,3.031054 3.27946,11.110692 3.94729,14.200151 0.27065,1.252004 0.57136,2.638364 0.66824,3.080801 0.20061,0.916035 1.10472,5.878358 1.24098,6.811199 0.47383,3.243839 0.67028,4.728059 0.78231,5.91058 0.0274,0.288839 0.0947,0.966015 0.14966,1.504822 0.10007,0.981209 0.45103,5.709771 0.49496,6.668653 0.0622,1.35856 0.0726,1.689185 0.0591,1.878046 -0.008,0.112368 -4e-4,0.563592 0.017,1.002739 0.0318,0.799218 0.0546,5.191542 0.0327,6.301812 -0.006,0.32435 -0.0219,1.22206 -0.0345,1.99492 -0.0126,0.77286 -0.11521,3.10719 -0.22804,5.18741 -0.11283,2.08021 -0.209,3.89167 -0.21372,4.02546 -0.005,0.13385 -0.0123,0.35281 -0.017,0.48667 -0.005,0.1339 -0.0431,0.60633 -0.0855,1.04991 -0.0424,0.44359 -0.0982,1.04964 -0.12407,1.34678 -0.0258,0.29717 -0.10227,1.05089 -0.16992,1.67493 -0.11935,1.1011 -0.14266,1.33982 -0.29208,2.99049 -0.0387,0.42795 -0.10476,0.83758 -0.14673,0.91028 -0.0419,0.0727 -0.0819,0.3514 -0.0888,0.61933 -0.007,0.26794 -0.0605,0.71475 -0.11918,0.99292 -0.0587,0.27814 -0.0945,0.58349 -0.0796,0.67849 0.0149,0.095 -0.0282,0.48504 -0.0956,0.86674 -0.13107,0.74139 -0.41505,2.43831 -0.60381,3.60772 -0.0633,0.39249 -0.16708,0.97091 -0.23049,1.28534 -0.0635,0.31441 -0.16454,0.86245 -0.22465,1.21781 -0.16068,0.94976 -0.41264,2.18979 -0.63196,3.11025 -0.10622,0.44577 -0.31093,1.31691 -0.45494,1.93589 -0.144,0.61897 -0.34513,1.42837 -0.44694,1.79867 -0.10179,0.3703 -0.25654,0.98307 -0.34383,1.36174 -0.0873,0.37868 -0.29583,1.11998 -0.4634,1.64733 -0.16758,0.52734 -0.40887,1.31355 -0.53623,1.74712 -0.45659,1.55444 -0.9558,3.07745 -1.19233,3.63776 -0.13227,0.3137 -0.45674,1.1686 -0.72076,1.89995 -0.50127,1.38857 -0.73084,1.80091 -0.93654,1.68215 -0.0674,-0.0389 -0.20325,-1.10824 -0.30198,-2.37633 -0.0987,-1.2681 -0.23545,-2.76955 -0.30383,-3.33661 -0.25515,-2.11518 -0.58241,-4.49881 -0.72311,-5.26692 -0.0799,-0.4362 -0.21488,-1.28007 -0.29993,-1.87526 -0.43614,-3.05224 -1.81361,-9.20637 -3.0996,-13.84813 -1.33511,-4.81908 -3.37045,-10.81068 -4.99272,-14.69748 -0.57139,-1.36904 -2.29859,-5.29557 -2.54599,-5.78796 -0.0928,-0.18474 -0.2864,-0.58434 -0.43019,-0.88806 -0.36255,-0.76569 -1.89623,-3.79966 -2.21781,-4.387309 -0.14558,-0.266067 -0.39143,-0.716484 -0.54635,-1.000952 -1.1904,-2.186073 -1.03007,-1.905557 -2.41746,-4.229948 -0.58356,-0.977707 -1.91329,-3.074767 -2.92325,-4.610185 -0.0638,-0.0969 -0.54733,-0.785664 -1.07465,-1.53061 -0.52734,-0.744953 -1.10226,-1.558188 -1.27765,-1.807215 -0.17536,-0.249015 -0.60139,-0.811381 -0.94671,-1.249702 -0.34532,-0.438327 -0.73517,-0.950272 -0.86634,-1.137661 -0.49127,-0.701873 -3.33698,-4.132058 -3.97743,-4.794354 -0.17486,-0.180784 -0.5114,-0.558964 -0.74788,-0.840305 -0.23649,-0.281354 -0.78651,-0.882868 -1.22226,-1.336685 -0.43576,-0.453829 -1.12808,-1.176812 -1.53847,-1.606625 -0.94762,-0.992415 -1.65955,-1.692061 -2.61498,-2.569854 -0.41706,-0.383164 -1.03439,-0.953379 -1.37184,-1.267134 -1.4737,-1.370183 -4.23885,-3.697545 -5.75981,-4.847894 -2.82517,-2.136764 -4.15495,-3.101835 -5.2648,-3.82088 l -1.26688,-0.820783 -0.93079,0.09455 c -6.26117,0.635984 -16.67541,4.043986 -23.9887,7.850158 -0.26648,0.138706 -0.73287,0.380065 -1.03641,0.536367 -0.30351,0.156326 -0.76942,0.397956 -1.03534,0.536982 -0.2659,0.139036 -0.70412,0.364743 -0.97384,0.501565 -0.51103,0.259285 -3.55018,2.048899 -4.04409,2.381382 -0.1559,0.105031 -0.37122,0.236019 -0.47837,0.291186 -0.10715,0.0552 -0.34528,0.204901 -0.52916,0.332786 -0.18386,0.127867 -0.44634,0.295473 -0.58325,0.372464 -0.13684,0.07702 -0.41933,0.264972 -0.62762,0.417771 -0.20831,0.152784 -0.46592,0.323199 -0.57247,0.37868 -0.220185,0.114679 -1.031446,0.685586 -2.214447,1.558343 -0.444902,0.328233 -1.011539,0.735117 -1.259182,0.904187 -0.247648,0.169078 -0.632371,0.457578 -0.854907,0.641143 -0.222556,0.183577 -0.730057,0.592675 -1.127793,0.909134 -0.397705,0.316466 -0.969999,0.783927 -1.271684,1.038801 -0.301713,0.254882 -0.706506,0.573364 -0.899562,0.707727 -0.193066,0.13438 -0.390447,0.307654 -0.438631,0.385052 -0.04815,0.07739 -0.273426,0.288787 -0.500639,0.469652 -0.526087,0.41899 -1.793987,1.570377 -2.434883,2.21118 -0.272056,0.272015 -0.770963,0.749907 -1.108689,1.062007 -0.795252,0.734937 -1.964163,1.938429 -2.692182,2.771835 -0.317092,0.363019 -0.725635,0.797358 -0.907861,0.965202 -0.182229,0.16783 -0.665888,0.720771 -1.074798,1.228764 -0.408883,0.507986 -1.006133,1.216354 -1.327124,1.574167 -0.321008,0.357802 -0.824512,0.990217 -1.118943,1.405326 -0.294405,0.415124 -0.985061,1.324856 -1.534746,2.021658 -2.675453,3.391521 -8.214744,13.054531 -9.652103,16.837331 -0.219048,0.5762 -0.575021,1.42435 -0.791271,1.88458 -0.216289,0.46023 -0.563424,1.3449 -0.771465,1.9659 -0.208065,0.62102 -0.513034,1.43428 -0.677726,1.80728 -0.164662,0.373 -0.403451,1.06491 -0.530606,1.53759 -0.127168,0.47266 -0.380539,1.24534 -0.56302,1.71704 -0.182503,0.47171 -0.329727,0.90919 -0.327199,0.97217 0.0025,0.0629 -0.173394,0.70202 -0.390886,1.42009 -0.499555,1.64922 -1.2087,4.44427 -1.704829,6.71975 -0.502152,2.30303 -0.566436,2.62 -0.746759,3.68229 -0.102498,0.60393 -0.251087,1.47557 -0.330175,1.937 -0.0791,0.4614 -0.205487,1.25013 -0.280854,1.75271 -0.07536,0.50258 -0.191134,1.21859 -0.257256,1.59112 -0.06614,0.37256 -0.105569,0.82675 -0.08761,1.00934 0.01797,0.18261 -0.0091,0.40537 -0.06019,0.49506 -0.05087,0.0899 -0.110594,0.47195 -0.132318,0.84948 -0.02174,0.37751 -0.06044,0.72621 -0.08604,0.77484 -0.02572,0.0486 -0.07776,0.49726 -0.11592,0.9969 -0.03817,0.49963 -0.100726,1.2414 -0.139009,1.64835 -0.159611,1.69666 -0.195246,2.20944 -0.326904,4.70482 -0.172859,3.27622 -0.208466,4.54039 -0.209197,7.43012 -3.38e-4,1.26632 -0.004,2.48531 -0.0082,2.70884 -0.0041,0.22354 0.02567,1.15237 0.06635,2.06409 0.04069,0.91173 0.03036,1.81384 -0.02294,2.00469 -0.09332,0.33403 -0.10384,0.33645 -0.280616,0.0658 -0.449312,-0.68769 -2.236355,-9.02896 -2.861551,-13.35665 -0.561647,-3.88788 -0.730802,-5.44949 -1.040063,-9.6021 -0.196779,-2.64191 -0.360499,-5.56008 -0.316264,-5.63669 0.0117,-0.0203 0.0017,-0.4536 -0.02224,-0.96284 -0.02398,-0.50927 -0.03845,-1.14636 -0.03218,-1.4158 0.0063,-0.26943 0.01066,-1.1924 0.0098,-2.05106 -8.96e-4,-0.85867 0.01105,-1.74538 0.02654,-1.97045 0.01544,-0.22515 0.04189,-1.03964 0.05862,-1.81011 0.04127,-1.90113 0.207151,-4.77972 0.385658,-6.69334 0.0398,-0.42631 0.09928,-1.09407 0.132227,-1.48393 0.03296,-0.38986 0.100971,-1.06812 0.151175,-1.50722 0.05018,-0.4391 0.139496,-1.22801 0.198443,-1.75313 0.05897,-0.52514 0.145415,-1.02097 0.19211,-1.10185 0.0467,-0.0809 0.06267,-0.22634 0.03558,-0.32321 -0.04752,-0.1697 0.120037,-1.34815 0.360813,-2.53758 0.06367,-0.3143 0.128665,-0.7555 0.144528,-0.98037 0.03113,-0.44146 0.216083,-1.49639 0.474226,-2.70489 0.335977,-1.57288 0.499431,-2.42736 0.578712,-3.02545 0.045,-0.33953 0.118996,-0.67979 0.164431,-0.75611 0.04517,-0.0765 0.185118,-0.60535 0.310407,-1.17562 0.489305,-2.2271 1.134109,-4.784552 1.45983,-5.790099 0.127861,-0.39426 0.333465,-1.073418 0.457158,-1.509079 0.47943,-1.688478 0.739265,-2.530246 1.11489,-3.611586 0.214437,-0.617316 0.535018,-1.54924 0.712377,-2.070934 1.196926,-3.520436 2.472225,-6.607159 4.991838,-12.082257 1.360531,-2.95635 5.549193,-10.486705 7.464927,-13.420352 z"
     id="path44-9" />
  <path
     style="fill:#000000;stroke-width:0.124225"
     d="m 261.38042,128.89944 c 0.47388,0.9356 1.0986,2.23446 1.38856,2.8862 0.28991,0.65175 0.87797,1.90795 1.30675,2.79158 0.42877,0.88365 0.94367,2.05444 1.1442,2.60178 0.20052,0.54732 0.59178,1.5014 0.86944,2.12017 0.47519,1.05891 1.15892,2.84368 1.91392,4.9961 0.18208,0.51898 0.50553,1.41733 0.71884,1.99629 0.21332,0.57897 0.49841,1.4636 0.63359,1.96585 0.13516,0.50224 0.31147,1.02698 0.39177,1.16607 0.0803,0.1391 0.29609,0.7844 0.47955,1.43398 0.18344,0.6496 0.53405,1.83126 0.77912,2.62592 0.24508,0.79467 0.55805,1.85863 0.69548,2.36439 0.13743,0.50574 0.33164,1.15956 0.43158,1.45292 0.19073,0.55979 0.59909,2.02036 0.97313,3.48066 0.29246,1.14183 0.70552,2.64404 0.9842,3.57931 0.12384,0.41535 0.24851,0.94974 0.2772,1.18745 0.0288,0.23766 0.12823,0.6436 0.22118,0.90199 0.093,0.25834 0.24072,0.81136 0.32841,1.22881 0.0877,0.41746 0.29978,1.34817 0.47136,2.06825 0.17157,0.72008 0.38647,1.64918 0.47755,2.06468 0.0911,0.41548 0.30048,1.34777 0.46532,2.07173 0.16484,0.72396 0.34645,1.60846 0.4036,1.96553 0.0571,0.35708 0.15072,0.84559 0.20795,1.08559 0.0572,0.24004 0.20511,1.01632 0.3286,1.72515 0.12349,0.70883 0.28525,1.5424 0.35946,1.85237 0.0742,0.30996 0.13404,0.69032 0.13296,0.84521 -0.001,0.15495 0.057,0.59864 0.12907,0.98609 0.0721,0.38746 0.1922,1.11597 0.26697,1.61889 0.0747,0.50293 0.1915,1.22653 0.25941,1.608 0.0679,0.38146 0.11134,0.77128 0.0965,0.86628 -0.0149,0.095 0.021,0.4003 0.0796,0.67847 0.0587,0.27814 0.1123,0.72499 0.11916,0.99292 0.007,0.26794 0.0354,0.52677 0.0633,0.5752 0.0453,0.0785 0.10935,0.70952 0.24747,2.43891 0.2363,2.95874 0.45535,8.36741 0.38748,9.56698 -0.0635,1.12271 -0.0739,1.52875 -0.0406,1.58649 0.0199,0.0344 0.004,0.29015 -0.0346,0.56829 -0.0389,0.27815 -0.0541,0.5345 -0.0337,0.56968 0.0518,0.0897 -0.26197,3.39567 -0.43736,4.60846 -0.70466,4.87258 -2.23919,9.56398 -4.07338,12.45322 -0.18803,0.29618 -0.40939,0.64772 -0.49188,0.78119 -0.53141,0.85966 -1.87378,2.53598 -2.48659,3.10518 -0.28564,0.26532 -0.78723,0.75335 -1.11462,1.08452 -0.49835,0.50409 -0.99442,0.83136 -3.04649,2.00981 -1.34811,0.77429 -2.70076,1.4842 -3.00581,1.57771 -3.40892,1.04512 -4.96476,1.32588 -8.67083,1.56468 -2.07932,0.13399 -3.66529,0.19848 -5.12218,0.2083 -0.2892,0.002 -1.06779,0.0102 -1.73016,0.0183 -0.66239,0.008 -1.50526,0.002 -1.87304,-0.0128 -0.36777,-0.0152 -0.86217,-0.0234 -1.09863,-0.0184 -0.89544,0.019 -6.02378,-0.23196 -8.21043,-0.40175 -0.83529,-0.0649 -1.89226,-0.14551 -2.34879,-0.17922 -1.32523,-0.0978 -6.9026,-0.71061 -8.311,-0.91315 -0.70793,-0.10178 -1.70891,-0.24256 -2.22442,-0.31281 -1.57405,-0.21455 -6.462,-1.0405 -7.53239,-1.27281 -0.55498,-0.12045 -2.1623,-0.44676 -3.57185,-0.72514 -3.14171,-0.62049 -11.26187,-2.71525 -14.27133,-3.68162 -1.2196,-0.39161 -2.57057,-0.82437 -3.00217,-0.96169 -0.89362,-0.28428 -5.64317,-1.98246 -6.51917,-2.33088 -3.04616,-1.21157 -4.42976,-1.78355 -5.50986,-2.27779 -0.26382,-0.12073 -0.88395,-0.40098 -1.37805,-0.6228 -0.89978,-0.40394 -5.17032,-2.46428 -6.0227,-2.90567 -1.20767,-0.62538 -1.4992,-0.78169 -1.65598,-0.88786 -0.0933,-0.0632 -0.48789,-0.28214 -0.87692,-0.48661 -0.70803,-0.3721 -4.5233,-2.5485 -5.4739,-3.12255 -0.2777,-0.1677 -1.04738,-0.63 -1.7104,-1.02733 -0.66303,-0.39733 -2.63331,-1.65337 -4.37841,-2.79119 -1.7451,-1.13782 -3.26579,-2.12684 -3.3793,-2.19782 -0.11359,-0.0709 -0.29936,-0.1871 -0.41299,-0.25801 -0.11368,-0.0709 -0.50356,-0.34048 -0.8665,-0.599 -0.36294,-0.25855 -0.85989,-0.60991 -1.10431,-0.78084 -0.24444,-0.17095 -0.85896,-0.61402 -1.36557,-0.98462 -0.8939,-0.65391 -1.08899,-0.79346 -2.4438,-1.74819 -0.35126,-0.24751 -0.67298,-0.50952 -0.71496,-0.58222 -0.0419,-0.0727 -0.26335,-0.24666 -0.49197,-0.38655 -0.2286,-0.13992 -0.58874,-0.40976 -0.8003,-0.59967 -0.2115,-0.18994 -0.45806,-0.3736 -0.54777,-0.40821 -0.0897,-0.0346 -0.40598,-0.26691 -0.70281,-0.51618 -0.57652,-0.48421 -1.90411,-1.57861 -2.82247,-2.32678 -0.30824,-0.2511 -0.75729,-0.63015 -0.99789,-0.84228 -0.24054,-0.2122 -0.66463,-0.57372 -0.94233,-0.80346 -0.74218,-0.61403 -1.6901,-1.45225 -2.37758,-2.10242 -0.33293,-0.31487 -0.98501,-0.92772 -1.44906,-1.36193 -0.46404,-0.43419 -1.06444,-1.01308 -1.33422,-1.2864 -0.2698,-0.2733 -0.72309,-0.7137 -1.00739,-0.97863 -0.28429,-0.26495 -0.82201,-0.81619 -1.19493,-1.22498 -0.3729,-0.4088 -0.93313,-1.01087 -1.24493,-1.33795 -1.11789,-1.17264 -2.18725,-2.36648 -2.55423,-2.85147 -0.20554,-0.2714 -0.78367,-0.97985 -1.28502,-1.57417 -0.95191,-1.1284 -1.19422,-1.53338 -0.98852,-1.65215 0.0674,-0.0389 1.06139,0.3781 2.20895,0.92665 1.14756,0.54856 2.51623,1.18087 3.04151,1.40518 1.95937,0.83662 4.18729,1.74502 4.92284,2.00722 0.41771,0.1489 1.21601,0.45395 1.77399,0.67789 2.86138,1.14841 8.87975,3.03255 13.54263,4.23973 4.841,1.2533 11.04755,2.48645 15.22475,3.02492 1.47132,0.18968 5.73539,0.65715 6.28552,0.68909 0.20639,0.012 0.64925,0.0441 0.98417,0.0715 0.84438,0.0689 4.23872,0.25765 4.90843,0.27298 0.30321,0.007 0.81621,0.0192 1.14002,0.0273 2.4884,0.0621 2.1653,0.0607 4.87198,0.0214 1.1385,-0.0165 3.61947,-0.11957 5.45416,-0.22652 0.11582,-0.007 0.95407,-0.0812 1.86287,-0.16537 0.90882,-0.0842 1.90056,-0.17549 2.20392,-0.20286 0.30333,-0.0274 1.00337,-0.11513 1.55563,-0.19503 0.55226,-0.0799 1.19054,-0.16154 1.41841,-0.18144 0.85348,-0.0745 5.24696,-0.82388 6.14075,-1.04737 0.24399,-0.0611 0.73978,-0.16341 1.10166,-0.22754 0.36191,-0.0641 1.15784,-0.2397 1.76874,-0.39016 0.6109,-0.15046 1.58319,-0.38854 2.16061,-0.52905 1.33327,-0.32445 2.29514,-0.59118 3.53305,-0.97971 0.54036,-0.1696 1.34284,-0.41912 1.78329,-0.55448 1.92346,-0.59117 5.32159,-1.82218 7.07831,-2.5642 3.26307,-1.37828 4.76374,-2.04737 5.94137,-2.64901 l 1.34426,-0.68675 0.38352,-0.85336 c 2.5798,-5.74032 4.83551,-16.46333 5.19591,-24.69991 0.0131,-0.30012 0.0373,-0.82471 0.0537,-1.16574 0.0164,-0.34101 0.0401,-0.86531 0.0526,-1.16512 0.0125,-0.29979 0.0362,-0.79216 0.0526,-1.09415 0.031,-0.57221 6.9e-4,-4.099 -0.0403,-4.69297 -0.013,-0.18753 -0.0188,-0.4395 -0.013,-0.55988 0.006,-0.1204 -0.005,-0.40147 -0.0236,-0.62466 -0.0188,-0.22316 -0.0327,-0.53428 -0.0309,-0.69134 0.002,-0.15702 -0.0198,-0.49564 -0.048,-0.75242 -0.0282,-0.25679 -0.0469,-0.5651 -0.0417,-0.68511 0.0108,-0.24803 -0.078,-1.23606 -0.24234,-2.69694 -0.0618,-0.54942 -0.13086,-1.24358 -0.15346,-1.54258 -0.0226,-0.29901 -0.0801,-0.77644 -0.12779,-1.06094 -0.0477,-0.28453 -0.14825,-0.92859 -0.22344,-1.43127 -0.0752,-0.50265 -0.1939,-1.23201 -0.26379,-1.62071 -0.0699,-0.38873 -0.14329,-0.89853 -0.16313,-1.13291 -0.0198,-0.23439 -0.0712,-0.49196 -0.11414,-0.57239 -0.043,-0.0804 -0.11339,-0.38118 -0.15642,-0.66839 -0.0998,-0.6651 -0.46299,-2.33883 -0.69749,-3.21426 -0.0996,-0.37162 -0.26396,-1.04263 -0.36538,-1.49116 -0.23885,-1.05617 -0.69665,-2.67023 -1.05439,-3.71741 -0.15584,-0.45612 -0.32772,-1.0271 -0.38196,-1.26883 -0.0542,-0.24173 -0.29126,-0.93707 -0.52674,-1.54519 -0.23549,-0.60809 -0.55033,-1.47951 -0.69971,-1.9364 -0.14936,-0.45691 -0.4453,-1.20916 -0.65758,-1.6717 -0.2123,-0.46252 -0.65482,-1.51552 -0.98343,-2.33996 -1.59942,-4.01277 -7.19819,-13.64144 -9.75551,-16.777632 -0.38948,-0.477803 -0.946,-1.210156 -1.23646,-1.627551 -0.29042,-0.417424 -0.883,-1.16039 -1.31678,-1.651057 -0.43379,-0.490699 -0.98561,-1.161441 -1.22628,-1.490566 -0.2407,-0.329102 -0.72052,-0.881857 -1.0663,-1.228316 -0.34575,-0.346461 -0.88822,-0.952224 -1.20549,-1.34611 -0.31725,-0.393905 -0.62251,-0.740144 -0.67832,-0.769446 -0.0557,-0.02927 -0.52127,-0.501177 -1.03439,-1.048563 -1.17849,-1.257236 -3.2445,-3.2689 -4.96706,-4.836302 -1.74341,-1.586392 -1.98577,-1.800545 -2.81558,-2.487853 -0.47177,-0.390732 -1.15234,-0.955236 -1.5124,-1.254441 -0.36004,-0.299206 -0.9799,-0.803023 -1.37747,-1.119582 -0.39757,-0.316555 -0.95976,-0.774824 -1.24932,-1.018352 -0.28958,-0.243562 -0.6632,-0.504799 -0.83031,-0.580542 -0.16713,-0.07574 -0.34649,-0.2106 -0.39864,-0.299658 -0.0524,-0.08899 -0.35342,-0.331753 -0.66951,-0.53933 -0.31606,-0.207579 -0.5987,-0.415452 -0.62801,-0.461931 -0.0292,-0.04655 -0.39177,-0.315971 -0.80538,-0.598839 -0.41361,-0.282873 -1.02473,-0.707933 -1.35801,-0.944562 -1.38954,-0.986554 -1.81581,-1.273806 -3.91104,-2.635514 -2.75086,-1.787811 -3.82786,-2.450735 -6.33007,-3.896229 -1.0965,-0.633456 -2.15033,-1.246151 -2.34181,-1.361549 -0.19153,-0.115347 -1.01082,-0.553955 -1.82073,-0.974583 -0.80993,-0.420632 -1.58601,-0.880628 -1.72465,-1.022209 -0.24262,-0.247832 -0.23946,-0.258156 0.0833,-0.27593 0.82021,-0.04527 8.93748,2.577739 12.99797,4.200147 3.64783,1.45754 5.0848,2.091855 8.83569,3.900329 2.38635,1.150538 4.99542,2.467838 5.03966,2.544455 0.0117,0.02027 0.39197,0.228291 0.84496,0.462157 0.45303,0.233868 1.012,0.539879 1.24221,0.680031 0.2302,0.140136 1.02732,0.605432 1.77139,1.033982 0.74408,0.428557 1.50601,0.882252 1.69319,1.008209 0.18726,0.125944 0.87941,0.5561 1.53829,0.95582 1.62579,0.986306 4.03578,2.569255 5.60377,3.680659 0.3493,0.247616 0.89785,0.633015 1.21901,0.856474 0.32115,0.223473 0.87454,0.621507 1.2297,0.884532 0.35518,0.263007 0.99375,0.734815 1.41904,1.048424 0.4253,0.31364 0.81147,0.636416 0.85817,0.717294 0.0467,0.08089 0.16468,0.167441 0.26212,0.192421 0.17073,0.0437 1.10751,0.778029 2.0172,1.581266 0.24036,0.212284 0.58995,0.489174 0.77677,0.61535 0.36675,0.247689 1.18786,0.935327 2.10538,1.763133 1.19417,1.077409 1.85244,1.646199 2.33077,2.013909 0.27154,0.208736 0.52921,0.442946 0.57259,0.520453 0.0436,0.07735 0.43169,0.462993 0.86291,0.85663 1.68407,1.537302 3.57649,3.374444 4.28446,4.159301 0.27751,0.307861 0.76287,0.825501 1.07832,1.150451 1.22255,1.25944 1.82163,1.90534 2.57028,2.77131 0.4274,0.49437 1.07417,1.23796 1.4373,1.65241 2.45032,2.79678 4.48585,5.44459 7.96762,10.36418 1.88001,2.65643 6.30715,10.0491 7.8899,13.175 z"
     id="path44-7" />
</svg>

